<svg width="115" height="14" viewBox="0 0 115 14" fill="none" xmlns="http://www.w3.org/2000/svg">
<path d="M8.512 10.792V9.24L4.912 7.944L2.496 7.064V7L4.912 6.104L8.512 4.808V3.256L0.608 6.328V7.72L8.512 10.792ZM14.2708 13H18.2068C20.8148 13 22.7188 11.88 22.7188 9.544C22.7188 7.944 21.7428 7.032 20.3988 6.744V6.664C21.4548 6.312 22.0788 5.24 22.0788 4.12C22.0788 1.992 20.3348 1.208 17.9188 1.208H14.2708V13ZM16.1268 6.136V2.664H17.7588C19.4228 2.664 20.2548 3.128 20.2548 4.36C20.2548 5.464 19.5028 6.136 17.7108 6.136H16.1268ZM16.1268 11.544V7.528H17.9988C19.8708 7.528 20.8948 8.12 20.8948 9.448C20.8948 10.888 19.8388 11.544 17.9988 11.544H16.1268ZM26.8626 13.208C27.9186 13.208 28.8626 12.68 29.6626 11.992H29.7266L29.8706 13H31.3746V7.704C31.3746 5.368 30.3666 3.976 28.1746 3.976C26.7666 3.976 25.5346 4.552 24.6226 5.128L25.3106 6.376C26.0626 5.896 26.9266 5.48 27.8546 5.48C29.1506 5.48 29.5186 6.376 29.5346 7.4C25.8706 7.8 24.2706 8.776 24.2706 10.664C24.2706 12.216 25.3426 13.208 26.8626 13.208ZM27.4226 11.752C26.6386 11.752 26.0466 11.4 26.0466 10.536C26.0466 9.544 26.9266 8.872 29.5346 8.568V10.728C28.8146 11.384 28.1906 11.752 27.4226 11.752ZM37.5698 13.208C38.5778 13.208 39.6178 12.84 40.4338 12.12L39.6658 10.904C39.1378 11.352 38.4818 11.704 37.7458 11.704C36.2898 11.704 35.2658 10.472 35.2658 8.6C35.2658 6.744 36.3218 5.496 37.8098 5.496C38.4018 5.496 38.8978 5.752 39.3778 6.184L40.2898 4.984C39.6498 4.424 38.8338 3.976 37.7138 3.976C35.3938 3.976 33.3618 5.672 33.3618 8.6C33.3618 11.528 35.1858 13.208 37.5698 13.208ZM42.2514 13H44.0594V10.712L45.5314 9.016L47.9154 13H49.9154L46.6034 7.784L49.5794 4.2H47.5314L44.1234 8.456H44.0594V0.247999H42.2514V13ZM58.0083 13.208C58.6483 13.208 59.2403 13.048 59.7363 12.888L59.4003 11.528C59.1443 11.64 58.7603 11.736 58.4563 11.736C57.5443 11.736 57.1763 11.192 57.1763 10.136V5.672H59.4643V4.2H57.1763V1.768H55.6403L55.4323 4.2L54.0563 4.296V5.672H55.3363V10.12C55.3363 11.976 56.0243 13.208 58.0083 13.208ZM64.6464 13.208C66.8224 13.208 68.7904 11.528 68.7904 8.6C68.7904 5.672 66.8224 3.976 64.6464 3.976C62.4704 3.976 60.5024 5.672 60.5024 8.6C60.5024 11.528 62.4704 13.208 64.6464 13.208ZM64.6464 11.704C63.2704 11.704 62.4064 10.472 62.4064 8.6C62.4064 6.744 63.2704 5.496 64.6464 5.496C66.0384 5.496 66.9024 6.744 66.9024 8.6C66.9024 10.472 66.0384 11.704 64.6464 11.704ZM74.7083 13H76.4683V7.448C76.4683 6.168 76.3243 4.808 76.2283 3.592H76.3083L77.5403 6.056L81.4443 13H83.3483V1.208H81.5883V6.712C81.5883 7.992 81.7323 9.416 81.8283 10.632H81.7483L80.5163 8.136L76.6123 1.208H74.7083V13ZM89.9623 13.208C91.1143 13.208 92.1223 12.824 92.9383 12.28L92.2983 11.112C91.6583 11.528 90.9863 11.768 90.2023 11.768C88.6823 11.768 87.6263 10.76 87.4823 9.08H93.1943C93.2423 8.856 93.2903 8.504 93.2903 8.136C93.2903 5.656 92.0263 3.976 89.6903 3.976C87.6423 3.976 85.6743 5.752 85.6743 8.6C85.6743 11.512 87.5783 13.208 89.9623 13.208ZM87.4663 7.8C87.6423 6.264 88.6183 5.416 89.7223 5.416C91.0023 5.416 91.6903 6.296 91.6903 7.8H87.4663ZM96.7691 13H98.8971L99.9691 8.664C100.193 7.832 100.353 7.016 100.529 6.104H100.609C100.801 7.016 100.961 7.816 101.169 8.648L102.289 13H104.497L106.769 4.2H105.041L103.905 8.952C103.713 9.816 103.569 10.616 103.393 11.464H103.329C103.121 10.616 102.945 9.816 102.737 8.952L101.473 4.2H99.7771L98.5291 8.952C98.3211 9.8 98.1451 10.616 97.9531 11.464H97.8891C97.7291 10.616 97.5851 9.816 97.4091 8.952L96.2411 4.2H94.3851L96.7691 13ZM110.979 13.208C113.155 13.208 114.323 12.008 114.323 10.536C114.323 8.872 112.963 8.328 111.731 7.864C110.771 7.512 109.907 7.224 109.907 6.472C109.907 5.864 110.355 5.384 111.331 5.384C112.051 5.384 112.675 5.704 113.283 6.152L114.147 5.016C113.443 4.456 112.467 3.976 111.299 3.976C109.347 3.976 108.163 5.08 108.163 6.552C108.163 8.04 109.459 8.664 110.643 9.112C111.587 9.48 112.579 9.832 112.579 10.632C112.579 11.304 112.083 11.816 111.027 11.816C110.083 11.816 109.315 11.416 108.531 10.808L107.667 11.992C108.531 12.696 109.763 13.208 110.979 13.208Z" fill="#F2F2F2"/>
</svg>
