<svg width="34" height="38" viewBox="0 0 34 38" fill="none" xmlns="http://www.w3.org/2000/svg">
<g clip-path="url(#clip0)" filter="url(#filter0_d)">
<path d="M17.7512 16.0215H15.4124V25.3186H17.7512V16.0215Z" fill="#CA3E47"/>
<path d="M22.429 16.0215H20.0901V25.3186H22.429V16.0215Z" fill="#CA3E47"/>
<path d="M13.0734 16.0215H10.7345V25.3186H13.0734V16.0215Z" fill="#CA3E47"/>
<path d="M26.8995 6.53692L23.4841 5.81493L23.6393 5.08075C23.8331 4.16387 23.6583 3.22649 23.147 2.44109C22.6357 1.65576 21.8492 1.11652 20.9324 0.922692L16.9278 0.0762455C15.0352 -0.323833 13.1698 0.890466 12.7697 2.78316L12.6146 3.51711L9.07883 2.76963C8.16295 2.57604 7.22639 2.7507 6.44187 3.26147C5.6573 3.77223 5.11859 4.55797 4.92505 5.47391L4.32019 8.33552L18.5673 11.3473H6.29088V26.4916C6.29088 28.4261 7.86471 30 9.79924 30H23.3648C25.2993 30 26.8732 28.4262 26.8732 26.4916V13.1032L28.9989 13.5525L29.6037 10.6906C30.0032 8.79999 28.7902 6.93659 26.8995 6.53692ZM15.058 3.26686C15.1914 2.63592 15.8132 2.23121 16.4441 2.36457L20.4487 3.21102C20.7543 3.27565 21.0165 3.45535 21.1869 3.71715C21.3574 3.97895 21.4156 4.29143 21.351 4.59705L21.1958 5.33118L14.9029 4.00092L15.058 3.26686ZM24.5343 26.4917C24.5343 27.1365 24.0097 27.6611 23.3648 27.6611H9.79919C9.15436 27.6611 8.62977 27.1365 8.62977 26.4917V13.6863H24.5343V26.4917ZM27.3152 10.207L27.194 10.7805L7.09215 6.53094L7.21338 5.95749C7.27777 5.65286 7.45695 5.39141 7.71793 5.22155C7.97897 5.05157 8.29051 4.99356 8.59514 5.05795L26.4158 8.82513C27.0447 8.9582 27.4482 9.578 27.3152 10.207Z" fill="#CA3E47"/>
</g>
<defs>
<filter id="filter0_d" x="-2" y="0" width="38" height="38" filterUnits="userSpaceOnUse" color-interpolation-filters="sRGB">
<feFlood flood-opacity="0" result="BackgroundImageFix"/>
<feColorMatrix in="SourceAlpha" type="matrix" values="0 0 0 0 0 0 0 0 0 0 0 0 0 0 0 0 0 0 127 0"/>
<feOffset dy="4"/>
<feGaussianBlur stdDeviation="2"/>
<feColorMatrix type="matrix" values="0 0 0 0 0 0 0 0 0 0 0 0 0 0 0 0 0 0 0.25 0"/>
<feBlend mode="normal" in2="BackgroundImageFix" result="effect1_dropShadow"/>
<feBlend mode="normal" in="SourceGraphic" in2="effect1_dropShadow" result="shape"/>
</filter>
<clipPath id="clip0">
<rect width="30" height="30" fill="white" transform="translate(2)"/>
</clipPath>
</defs>
</svg>
